<svg xmlns="http://www.w3.org/2000/svg" width="320" height="320" viewBox="0 0 320 320">
<defs>
<radialGradient id="bg" cx="50%" cy="45%" r="70%"><stop offset="0" stop-color="#175443"/><stop offset="0.6" stop-color="#134033"/><stop offset="1" stop-color="#103a2f"/></radialGradient>
<radialGradient id="disc" cx="50%" cy="40%" r="60%"><stop offset="0" stop-color="#1d6250"/><stop offset="1" stop-color="#165645"/></radialGradient>
<linearGradient id="body" x1="0" y1="0" x2="0" y2="1"><stop offset="0" stop-color="#38a07f"/><stop offset="1" stop-color="#2c8268"/></linearGradient>
<linearGradient id="paper" x1="0" y1="0" x2="0" y2="1"><stop offset="0" stop-color="#f3efe4"/><stop offset="1" stop-color="#e2dccb"/></linearGradient>
</defs>
<rect width="320" height="320" fill="url(#bg)"/>
<g stroke="#2b5a4d" stroke-width="2" fill="none" stroke-linecap="round"><path d="M24 60 H62 L74 72"/><path d="M24 236 H58"/><path d="M296 82 H262"/><path d="M296 260 H264 L252 248"/></g>
<g fill="#134033" stroke="#2f6a5a" stroke-width="2"><circle cx="22" cy="60" r="4"/><circle cx="22" cy="236" r="4"/><circle cx="298" cy="82" r="4"/><circle cx="298" cy="260" r="4"/></g>
<circle cx="160" cy="165" r="128" fill="none" stroke="#1d5a49" stroke-width="2"/>
<circle cx="160" cy="165" r="116" fill="url(#disc)"/>
<path d="M60 110 A116 116 0 0 1 214 62" fill="none" stroke="#2f8a6e" stroke-width="7" stroke-linecap="round"/>
<path d="M262 214 A116 116 0 0 1 160 281" fill="none" stroke="#2f8a6e" stroke-width="7" stroke-linecap="round"/>
<circle cx="160" cy="165" r="104" fill="none" stroke="#2a7560" stroke-width="1.5" stroke-dasharray="2 7"/>
<path d="M62 236 H258" stroke="#0f3328" stroke-width="5" stroke-linecap="round"/>
<rect x="78" y="176" width="60" height="60" rx="3" fill="#2f8d72" stroke="#0f3328" stroke-width="3.5" stroke-linejoin="round" stroke-linecap="round"/>
<path d="M108 176 V236" stroke="#b8925a" stroke-width="5"/><path d="M108 176 V236" stroke="#0f3328" stroke-width="1.5" opacity=".5"/><rect x="140" y="176" width="60" height="60" rx="3" fill="#2f8d72" stroke="#0f3328" stroke-width="3.5" stroke-linejoin="round" stroke-linecap="round"/>
<path d="M170 176 V236" stroke="#b8925a" stroke-width="5"/><path d="M170 176 V236" stroke="#0f3328" stroke-width="1.5" opacity=".5"/><rect x="109" y="116" width="60" height="60" rx="3" fill="url(#body)" stroke="#0f3328" stroke-width="3.5" stroke-linejoin="round" stroke-linecap="round"/>
<path d="M139 116 V176" stroke="#b8925a" stroke-width="5"/><path d="M139 116 V176" stroke="#0f3328" stroke-width="1.5" opacity=".5"/>
<g transform="rotate(40 196 128)"><rect x="186" y="96" width="20" height="104" rx="6" fill="#d8b47c" stroke="#0f3328" stroke-width="3.5" stroke-linejoin="round" stroke-linecap="round"/><rect x="170" y="84" width="52" height="30" rx="8" fill="#ece8dc" stroke="#0f3328" stroke-width="3.5" stroke-linejoin="round" stroke-linecap="round"/></g>
<circle cx="82" cy="96" r="25" fill="#ece8dc" stroke="#0f3328" stroke-width="3"/>
<g transform="translate(67.625 81.625) scale(1.198)" fill="none" stroke="#2f8d72" stroke-width="2.4" stroke-linecap="round" stroke-linejoin="round"><path d="m15 12-9.373 9.373a1 1 0 0 1-3.001-3L12 9" /><path d="m18 15 4-4" /><path d="m21.5 11.5-1.914-1.914A2 2 0 0 1 19 8.172v-.344a2 2 0 0 0-.586-1.414l-1.657-1.657A6 6 0 0 0 12.516 3H9l1.243 1.243A6 6 0 0 1 12 8.485V10l2 2h1.172a2 2 0 0 1 1.414.586L18.5 14.5" /></g>
<circle cx="240" cy="92" r="25" fill="#ece8dc" stroke="#0f3328" stroke-width="3"/>
<g transform="translate(225.625 77.625) scale(1.198)" fill="none" stroke="#2f8d72" stroke-width="2.4" stroke-linecap="round" stroke-linejoin="round"><path d="M14.7 6.3a1 1 0 0 0 0 1.4l1.6 1.6a1 1 0 0 0 1.4 0l3.106-3.105c.32-.322.863-.22.983.218a6 6 0 0 1-8.259 7.057l-7.91 7.91a1 1 0 0 1-2.999-3l7.91-7.91a6 6 0 0 1 7.057-8.259c.438.12.54.662.219.984z" /></g>
<path d="M268 142 l3 7 7 3 -7 3 -3 7 -3 -7 -7 -3 7 -3 Z" fill="#a1dbc7"/><path d="M118 67 l2.0999999999999996 4.8999999999999995 4.8999999999999995 2.0999999999999996 -4.8999999999999995 2.0999999999999996 -2.0999999999999996 4.8999999999999995 -2.0999999999999996 -4.8999999999999995 -4.8999999999999995 -2.0999999999999996 4.8999999999999995 -2.0999999999999996 Z" fill="#a1dbc7"/>
</svg>