<svg xmlns="http://www.w3.org/2000/svg" width="320" height="320" viewBox="0 0 320 320">
<defs>
<radialGradient id="bg" cx="50%" cy="45%" r="70%"><stop offset="0" stop-color="#175443"/><stop offset="0.6" stop-color="#134033"/><stop offset="1" stop-color="#103a2f"/></radialGradient>
<radialGradient id="disc" cx="50%" cy="40%" r="60%"><stop offset="0" stop-color="#1d6250"/><stop offset="1" stop-color="#165645"/></radialGradient>
<linearGradient id="body" x1="0" y1="0" x2="0" y2="1"><stop offset="0" stop-color="#38a07f"/><stop offset="1" stop-color="#2c8268"/></linearGradient>
<linearGradient id="paper" x1="0" y1="0" x2="0" y2="1"><stop offset="0" stop-color="#f3efe4"/><stop offset="1" stop-color="#e2dccb"/></linearGradient>
</defs>
<rect width="320" height="320" fill="url(#bg)"/>
<g stroke="#2b5a4d" stroke-width="2" fill="none" stroke-linecap="round"><path d="M24 60 H62 L74 72"/><path d="M24 236 H58"/><path d="M296 82 H262"/><path d="M296 260 H264 L252 248"/></g>
<g fill="#134033" stroke="#2f6a5a" stroke-width="2"><circle cx="22" cy="60" r="4"/><circle cx="22" cy="236" r="4"/><circle cx="298" cy="82" r="4"/><circle cx="298" cy="260" r="4"/></g>
<circle cx="160" cy="165" r="128" fill="none" stroke="#1d5a49" stroke-width="2"/>
<circle cx="160" cy="165" r="116" fill="url(#disc)"/>
<path d="M60 110 A116 116 0 0 1 214 62" fill="none" stroke="#2f8a6e" stroke-width="7" stroke-linecap="round"/>
<path d="M262 214 A116 116 0 0 1 160 281" fill="none" stroke="#2f8a6e" stroke-width="7" stroke-linecap="round"/>
<circle cx="160" cy="165" r="104" fill="none" stroke="#2a7560" stroke-width="1.5" stroke-dasharray="2 7"/>
<path d="M62 236 H258" stroke="#0f3328" stroke-width="5" stroke-linecap="round"/>
<circle cx="116" cy="138.5" r="16.5" fill="#ece8dc" stroke="#0f3328" stroke-width="3.5" stroke-linejoin="round" stroke-linecap="round"/>
<path d="M90.7 203 V178.8 Q90.7 159 110.5 159 H121.50000000000001 Q141.3 159 141.3 178.8 V203 Z" fill="#2f8d72" stroke="#0f3328" stroke-width="3.5" stroke-linejoin="round" stroke-linecap="round"/>
<circle cx="204" cy="138.5" r="16.5" fill="#ece8dc" stroke="#0f3328" stroke-width="3.5" stroke-linejoin="round" stroke-linecap="round"/>
<path d="M178.7 203 V178.8 Q178.7 159 198.5 159 H209.5 Q229.3 159 229.3 178.8 V203 Z" fill="#24715a" stroke="#0f3328" stroke-width="3.5" stroke-linejoin="round" stroke-linecap="round"/>
<path d="M136 72 H186 Q196 72 196 82 V102 Q196 112 186 112 H160 L146 126 V112 H136 Q126 112 126 102 V82 Q126 72 136 72 Z" fill="#ece8dc" stroke="#0f3328" stroke-width="3.5" stroke-linejoin="round" stroke-linecap="round"/><path d="M140 92 H182" stroke="#2f8d72" stroke-width="4" stroke-linecap="round"/>
<path d="M146 198 Q160 212 174 198" fill="none" stroke="#ece8dc" stroke-width="6" stroke-linecap="round"/>
<path d="M150 150 Q160 142 170 150 Q180 160 160 176 Q140 160 150 150 Z" fill="#f2d98a" stroke="#0f3328" stroke-width="3.5" stroke-linejoin="round" stroke-linecap="round"/>
<circle cx="82" cy="96" r="25" fill="#ece8dc" stroke="#0f3328" stroke-width="3"/>
<g transform="translate(67.625 81.625) scale(1.198)" fill="none" stroke="#2f8d72" stroke-width="2.4" stroke-linecap="round" stroke-linejoin="round"><path d="m11 17 2 2a1 1 0 1 0 3-3" /><path d="m14 14 2.5 2.5a1 1 0 1 0 3-3l-3.88-3.88a3 3 0 0 0-4.24 0l-.88.88a1 1 0 1 1-3-3l2.81-2.81a5.79 5.79 0 0 1 7.06-.87l.47.28a2 2 0 0 0 1.42.25L21 4" /><path d="m21 3 1 11h-2" /><path d="M3 3 2 14l6.5 6.5a1 1 0 1 0 3-3" /><path d="M3 4h8" /></g>
<circle cx="240" cy="92" r="25" fill="#ece8dc" stroke="#0f3328" stroke-width="3"/>
<g transform="translate(225.625 77.625) scale(1.198)" fill="none" stroke="#2f8d72" stroke-width="2.4" stroke-linecap="round" stroke-linejoin="round"><path d="M16 10a2 2 0 0 1-2 2H6.828a2 2 0 0 0-1.414.586l-2.202 2.202A.71.71 0 0 1 2 14.286V4a2 2 0 0 1 2-2h10a2 2 0 0 1 2 2z" /><path d="M20 9a2 2 0 0 1 2 2v10.286a.71.71 0 0 1-1.212.502l-2.202-2.202A2 2 0 0 0 17.172 19H10a2 2 0 0 1-2-2v-1" /></g>
<path d="M268 142 l3 7 7 3 -7 3 -3 7 -3 -7 -7 -3 7 -3 Z" fill="#a1dbc7"/><path d="M118 67 l2.0999999999999996 4.8999999999999995 4.8999999999999995 2.0999999999999996 -4.8999999999999995 2.0999999999999996 -2.0999999999999996 4.8999999999999995 -2.0999999999999996 -4.8999999999999995 -4.8999999999999995 -2.0999999999999996 4.8999999999999995 -2.0999999999999996 Z" fill="#a1dbc7"/>
</svg>