<svg xmlns="http://www.w3.org/2000/svg" width="320" height="320" viewBox="0 0 320 320">
<defs>
<radialGradient id="bg" cx="50%" cy="45%" r="70%"><stop offset="0" stop-color="#175443"/><stop offset="0.6" stop-color="#134033"/><stop offset="1" stop-color="#103a2f"/></radialGradient>
<radialGradient id="disc" cx="50%" cy="40%" r="60%"><stop offset="0" stop-color="#1d6250"/><stop offset="1" stop-color="#165645"/></radialGradient>
<linearGradient id="body" x1="0" y1="0" x2="0" y2="1"><stop offset="0" stop-color="#38a07f"/><stop offset="1" stop-color="#2c8268"/></linearGradient>
<linearGradient id="paper" x1="0" y1="0" x2="0" y2="1"><stop offset="0" stop-color="#f3efe4"/><stop offset="1" stop-color="#e2dccb"/></linearGradient>
</defs>
<rect width="320" height="320" fill="url(#bg)"/>
<g stroke="#2b5a4d" stroke-width="2" fill="none" stroke-linecap="round"><path d="M24 60 H62 L74 72"/><path d="M24 236 H58"/><path d="M296 82 H262"/><path d="M296 260 H264 L252 248"/></g>
<g fill="#134033" stroke="#2f6a5a" stroke-width="2"><circle cx="22" cy="60" r="4"/><circle cx="22" cy="236" r="4"/><circle cx="298" cy="82" r="4"/><circle cx="298" cy="260" r="4"/></g>
<circle cx="160" cy="165" r="128" fill="none" stroke="#1d5a49" stroke-width="2"/>
<circle cx="160" cy="165" r="116" fill="url(#disc)"/>
<path d="M60 110 A116 116 0 0 1 214 62" fill="none" stroke="#2f8a6e" stroke-width="7" stroke-linecap="round"/>
<path d="M262 214 A116 116 0 0 1 160 281" fill="none" stroke="#2f8a6e" stroke-width="7" stroke-linecap="round"/>
<circle cx="160" cy="165" r="104" fill="none" stroke="#2a7560" stroke-width="1.5" stroke-dasharray="2 7"/>
<path d="M62 236 H258" stroke="#0f3328" stroke-width="5" stroke-linecap="round"/>
<path d="M86 92 H160 L176 108 V204 Q176 210 170 210 H86 Q80 210 80 204 V98 Q80 92 86 92 Z" fill="url(#paper)" stroke="#0f3328" stroke-width="3.5" stroke-linejoin="round" stroke-linecap="round"/><path d="M160 92 V108 H176" fill="#d8d2c2" stroke="#0f3328" stroke-width="3.5" stroke-linejoin="round" stroke-linecap="round"/><path d="M94 114 H132.8" stroke="#2f8d72" stroke-width="5" stroke-linecap="round"/><path d="M94 132 H162" stroke="#5fd0a6" stroke-width="3.5" stroke-linecap="round" opacity=".85"/><path d="M94 146 H144" stroke="#5fd0a6" stroke-width="3.5" stroke-linecap="round" opacity=".85"/><path d="M94 160 H162" stroke="#5fd0a6" stroke-width="3.5" stroke-linecap="round" opacity=".85"/>
<circle cx="128" cy="128" r="18" fill="#2f8d72" stroke="#0f3328" stroke-width="3.5" stroke-linejoin="round" stroke-linecap="round"/><circle cx="122" cy="122" r="3.5" fill="#ece8dc"/><circle cx="134" cy="134" r="3.5" fill="#ece8dc"/><path d="M120 136 L136 120" stroke="#ece8dc" stroke-width="4" stroke-linecap="round"/>
<circle cx="206" cy="178" r="20" fill="#f2d98a" stroke="#0f3328" stroke-width="3.5" stroke-linejoin="round" stroke-linecap="round"/><circle cx="206" cy="178" r="11.6" fill="none" stroke="#0f3328" stroke-width="2.5"/><circle cx="236" cy="186" r="15" fill="#f2d98a" stroke="#0f3328" stroke-width="3.5" stroke-linejoin="round" stroke-linecap="round"/><circle cx="236" cy="186" r="8.7" fill="none" stroke="#0f3328" stroke-width="2.5"/><circle cx="190" cy="194" r="13" fill="#f2d98a" stroke="#0f3328" stroke-width="3.5" stroke-linejoin="round" stroke-linecap="round"/><circle cx="190" cy="194" r="7.539999999999999" fill="none" stroke="#0f3328" stroke-width="2.5"/>
<path d="M169 212 A45 30 0 0 0 259 212 Z" fill="#ece8dc" stroke="#0f3328" stroke-width="3.5" stroke-linejoin="round" stroke-linecap="round"/>
<path d="M179 220 Q214 234 249 220" fill="none" stroke="#d8d2c2" stroke-width="3" stroke-linecap="round"/>
<path d="M253 210 Q275 198 265 222" fill="#ece8dc" stroke="#0f3328" stroke-width="3.5" stroke-linejoin="round" stroke-linecap="round"/>
<circle cx="82" cy="96" r="25" fill="#ece8dc" stroke="#0f3328" stroke-width="3"/>
<g transform="translate(67.625 81.625) scale(1.198)" fill="none" stroke="#2f8d72" stroke-width="2.4" stroke-linecap="round" stroke-linejoin="round"><path d="M11 15h2a2 2 0 1 0 0-4h-3c-.6 0-1.1.2-1.4.6L3 17" /><path d="m7 21 1.6-1.4c.3-.4.8-.6 1.4-.6h4c1.1 0 2.1-.4 2.8-1.2l4.6-4.4a2 2 0 0 0-2.75-2.91l-4.2 3.9" /><path d="m2 16 6 6" /><circle cx="16" cy="9" r="2.9" /><circle cx="6" cy="5" r="3" /></g>
<circle cx="240" cy="92" r="25" fill="#ece8dc" stroke="#0f3328" stroke-width="3"/>
<g transform="translate(225.625 77.625) scale(1.198)" fill="none" stroke="#2f8d72" stroke-width="2.4" stroke-linecap="round" stroke-linejoin="round"><line x1="19" x2="5" y1="5" y2="19" /><circle cx="6.5" cy="6.5" r="2.5" /><circle cx="17.5" cy="17.5" r="2.5" /></g>
<path d="M268 142 l3 7 7 3 -7 3 -3 7 -3 -7 -7 -3 7 -3 Z" fill="#a1dbc7"/><path d="M118 67 l2.0999999999999996 4.8999999999999995 4.8999999999999995 2.0999999999999996 -4.8999999999999995 2.0999999999999996 -2.0999999999999996 4.8999999999999995 -2.0999999999999996 -4.8999999999999995 -4.8999999999999995 -2.0999999999999996 4.8999999999999995 -2.0999999999999996 Z" fill="#a1dbc7"/>
</svg>