<svg xmlns="http://www.w3.org/2000/svg" width="320" height="320" viewBox="0 0 320 320">
<defs>
<radialGradient id="bg" cx="50%" cy="45%" r="70%"><stop offset="0" stop-color="#175443"/><stop offset="0.6" stop-color="#134033"/><stop offset="1" stop-color="#103a2f"/></radialGradient>
<radialGradient id="disc" cx="50%" cy="40%" r="60%"><stop offset="0" stop-color="#1d6250"/><stop offset="1" stop-color="#165645"/></radialGradient>
<linearGradient id="body" x1="0" y1="0" x2="0" y2="1"><stop offset="0" stop-color="#38a07f"/><stop offset="1" stop-color="#2c8268"/></linearGradient>
<linearGradient id="paper" x1="0" y1="0" x2="0" y2="1"><stop offset="0" stop-color="#f3efe4"/><stop offset="1" stop-color="#e2dccb"/></linearGradient>
</defs>
<rect width="320" height="320" fill="url(#bg)"/>
<g stroke="#2b5a4d" stroke-width="2" fill="none" stroke-linecap="round"><path d="M24 60 H62 L74 72"/><path d="M24 236 H58"/><path d="M296 82 H262"/><path d="M296 260 H264 L252 248"/></g>
<g fill="#134033" stroke="#2f6a5a" stroke-width="2"><circle cx="22" cy="60" r="4"/><circle cx="22" cy="236" r="4"/><circle cx="298" cy="82" r="4"/><circle cx="298" cy="260" r="4"/></g>
<circle cx="160" cy="165" r="128" fill="none" stroke="#1d5a49" stroke-width="2"/>
<circle cx="160" cy="165" r="116" fill="url(#disc)"/>
<path d="M60 110 A116 116 0 0 1 214 62" fill="none" stroke="#2f8a6e" stroke-width="7" stroke-linecap="round"/>
<path d="M262 214 A116 116 0 0 1 160 281" fill="none" stroke="#2f8a6e" stroke-width="7" stroke-linecap="round"/>
<circle cx="160" cy="165" r="104" fill="none" stroke="#2a7560" stroke-width="1.5" stroke-dasharray="2 7"/>
<path d="M62 236 H258" stroke="#0f3328" stroke-width="5" stroke-linecap="round"/>
<path d="M80 212 C 110 150, 150 216, 180 150 S 236 96, 250 100" fill="none" stroke="#a1dbc7" stroke-width="4" stroke-linecap="round" stroke-dasharray="1 10"/>
<circle cx="80" cy="212" r="12" fill="#ece8dc" stroke="#0f3328" stroke-width="3.5" stroke-linejoin="round" stroke-linecap="round"/><circle cx="180" cy="150" r="12" fill="#ece8dc" stroke="#0f3328" stroke-width="3.5" stroke-linejoin="round" stroke-linecap="round"/>
<path d="M250 112 C 242 103, 238 97, 238 91 A12 12 0 0 1 262 91 C 262 97, 258 103, 250 112 Z" fill="#f2d98a" stroke="#0f3328" stroke-width="3.5" stroke-linejoin="round" stroke-linecap="round"/>
<circle cx="130" cy="134.5" r="16.5" fill="#ece8dc" stroke="#0f3328" stroke-width="3.5" stroke-linejoin="round" stroke-linecap="round"/>
<path d="M104.7 199 V174.8 Q104.7 155 124.5 155 H135.5 Q155.3 155 155.3 174.8 V199 Z" fill="#2f8d72" stroke="#0f3328" stroke-width="3.5" stroke-linejoin="round" stroke-linecap="round"/>
<rect x="150" y="196" width="44" height="34" rx="6" fill="#24715a" stroke="#0f3328" stroke-width="3.5" stroke-linejoin="round" stroke-linecap="round"/><path d="M160 196 V190 Q160 184 166 184 H178 Q184 184 184 190 V196" fill="none" stroke="#0f3328" stroke-width="3.5" stroke-linejoin="round" stroke-linecap="round"/>
<circle cx="82" cy="96" r="25" fill="#ece8dc" stroke="#0f3328" stroke-width="3"/>
<g transform="translate(67.625 81.625) scale(1.198)" fill="none" stroke="#2f8d72" stroke-width="2.4" stroke-linecap="round" stroke-linejoin="round"><circle cx="6" cy="19" r="3" /><path d="M9 19h8.5a3.5 3.5 0 0 0 0-7h-11a3.5 3.5 0 0 1 0-7H15" /><circle cx="18" cy="5" r="3" /></g>
<circle cx="240" cy="92" r="25" fill="#ece8dc" stroke="#0f3328" stroke-width="3"/>
<g transform="translate(225.625 77.625) scale(1.198)" fill="none" stroke="#2f8d72" stroke-width="2.4" stroke-linecap="round" stroke-linejoin="round"><path d="M16 20V4a2 2 0 0 0-2-2h-4a2 2 0 0 0-2 2v16" /><rect width="20" height="14" x="2" y="6" rx="2" /></g>
<path d="M268 142 l3 7 7 3 -7 3 -3 7 -3 -7 -7 -3 7 -3 Z" fill="#a1dbc7"/><path d="M118 67 l2.0999999999999996 4.8999999999999995 4.8999999999999995 2.0999999999999996 -4.8999999999999995 2.0999999999999996 -2.0999999999999996 4.8999999999999995 -2.0999999999999996 -4.8999999999999995 -4.8999999999999995 -2.0999999999999996 4.8999999999999995 -2.0999999999999996 Z" fill="#a1dbc7"/>
</svg>