<svg xmlns="http://www.w3.org/2000/svg" viewBox="0 0 1200 1310" width="1200" height="1310">
<defs>
  <radialGradient id="halo" cx="50%" cy="44%" r="52%">
    <stop offset="0" stop-color="#fff" stop-opacity=".95"/>
    <stop offset=".55" stop-color="#fff" stop-opacity=".45"/>
    <stop offset="1" stop-color="#fff" stop-opacity="0"/>
  </radialGradient>
  <radialGradient id="gridFade" cx="50%" cy="46%" r="50%">
    <stop offset="0" stop-color="#fff"/><stop offset=".7" stop-color="#fff" stop-opacity=".6"/><stop offset="1" stop-color="#fff" stop-opacity="0"/>
  </radialGradient>
  <mask id="gridMask"><rect width="1200" height="1310" fill="url(#gridFade)"/></mask>
  <pattern id="grid" width="60" height="60" patternUnits="userSpaceOnUse">
    <path d="M60 0H0V60" fill="none" stroke="#197B57" stroke-opacity=".07" stroke-width="1.5"/>
  </pattern>
  <linearGradient id="bar" x1="0" y1="0" x2="0" y2="1">
    <stop offset="0" stop-color="#22966B"/><stop offset=".55" stop-color="#197B57"/><stop offset="1" stop-color="#0E3B2E"/>
  </linearGradient>
  <linearGradient id="barSheen" x1="0" y1="0" x2="1" y2="0">
    <stop offset="0" stop-color="#fff" stop-opacity=".28"/><stop offset=".45" stop-color="#fff" stop-opacity="0"/>
  </linearGradient>
  <linearGradient id="soil" x1="0" y1="0" x2="0" y2="1">
    <stop offset="0" stop-color="#0E3B2E"/><stop offset="1" stop-color="#16211C"/>
  </linearGradient>
  <linearGradient id="arrow" x1="0" y1="1" x2="1" y2="0">
    <stop offset="0" stop-color="#197B57" stop-opacity="0"/><stop offset=".45" stop-color="#197B57" stop-opacity=".22"/><stop offset="1" stop-color="#197B57" stop-opacity=".55"/>
  </linearGradient>
  <linearGradient id="area" x1="0" y1="0" x2="0" y2="1">
    <stop offset="0" stop-color="#197B57" stop-opacity=".28"/><stop offset="1" stop-color="#197B57" stop-opacity="0"/>
  </linearGradient>
  <filter id="cardShadow" x="-30%" y="-30%" width="160%" height="170%">
    <feDropShadow dx="0" dy="16" stdDeviation="16" flood-color="#0E3B2E" flood-opacity=".12"/>
    <feDropShadow dx="0" dy="2" stdDeviation="2" flood-color="#0E3B2E" flood-opacity=".05"/>
  </filter>
  <filter id="barShadow" x="-60%" y="-10%" width="220%" height="130%">
    <feDropShadow dx="0" dy="18" stdDeviation="18" flood-color="#0E3B2E" flood-opacity=".22"/>
  </filter>
  <filter id="glow" x="-50%" y="-50%" width="200%" height="200%">
    <feGaussianBlur stdDeviation="7"/>
  </filter>
  <filter id="softShadow" x="-20%" y="-50%" width="140%" height="200%">
    <feGaussianBlur stdDeviation="22"/>
  </filter>
  
</defs>
<rect width="1200" height="1310" fill="#EDF4F2"/>
<rect width="1200" height="1310" fill="url(#grid)" mask="url(#gridMask)"/>
<ellipse cx="600" cy="560" rx="560" ry="520" fill="url(#halo)"/>
<path d="M140 770 C 420 735, 700 500, 1000 262" fill="none" stroke="url(#arrow)" stroke-width="22" stroke-linecap="round"/>
<path d="M999.7 296.0 L1031.3 237.1 L966.8 254.5" fill="none" stroke="#197B57" stroke-opacity=".6" stroke-width="22" stroke-linecap="round" stroke-linejoin="round"/>
<ellipse cx="600" cy="1154" rx="440" ry="30" fill="#0E3B2E" fill-opacity=".20" filter="url(#softShadow)"/>
<path d="M194 812 H1006 Q1070 812 1070 876 V1076 Q1070 1140 1006 1140 H194 Q130 1140 130 1076 V876 Q130 812 194 812 Z" fill="url(#soil)"/>
<clipPath id="soilShape"><path d="M194 812 H1006 Q1070 812 1070 876 V1076 Q1070 1140 1006 1140 H194 Q130 1140 130 1076 V876 Q130 812 194 812 Z"/></clipPath><g clip-path="url(#soilShape)"><circle cx="160" cy="852" r="2" fill="#34D399" fill-opacity=".10"/><circle cx="194" cy="852" r="2" fill="#34D399" fill-opacity=".10"/><circle cx="228" cy="852" r="2" fill="#34D399" fill-opacity=".10"/><circle cx="262" cy="852" r="2" fill="#34D399" fill-opacity=".10"/><circle cx="296" cy="852" r="2" fill="#34D399" fill-opacity=".10"/><circle cx="330" cy="852" r="2" fill="#34D399" fill-opacity=".10"/><circle cx="364" cy="852" r="2" fill="#34D399" fill-opacity=".10"/><circle cx="398" cy="852" r="2" fill="#34D399" fill-opacity=".10"/><circle cx="432" cy="852" r="2" fill="#34D399" fill-opacity=".10"/><circle cx="466" cy="852" r="2" fill="#34D399" fill-opacity=".10"/><circle cx="500" cy="852" r="2" fill="#34D399" fill-opacity=".10"/><circle cx="534" cy="852" r="2" fill="#34D399" fill-opacity=".10"/><circle cx="568" cy="852" r="2" fill="#34D399" fill-opacity=".10"/><circle cx="602" cy="852" r="2" fill="#34D399" fill-opacity=".10"/><circle cx="636" cy="852" r="2" fill="#34D399" fill-opacity=".10"/><circle cx="670" cy="852" r="2" fill="#34D399" fill-opacity=".10"/><circle cx="704" cy="852" r="2" fill="#34D399" fill-opacity=".10"/><circle cx="738" cy="852" r="2" fill="#34D399" fill-opacity=".10"/><circle cx="772" cy="852" r="2" fill="#34D399" fill-opacity=".10"/><circle cx="806" cy="852" r="2" fill="#34D399" fill-opacity=".10"/><circle cx="840" cy="852" r="2" fill="#34D399" fill-opacity=".10"/><circle cx="874" cy="852" r="2" fill="#34D399" fill-opacity=".10"/><circle cx="908" cy="852" r="2" fill="#34D399" fill-opacity=".10"/><circle cx="942" cy="852" r="2" fill="#34D399" fill-opacity=".10"/><circle cx="976" cy="852" r="2" fill="#34D399" fill-opacity=".10"/><circle cx="1010" cy="852" r="2" fill="#34D399" fill-opacity=".10"/><circle cx="1044" cy="852" r="2" fill="#34D399" fill-opacity=".10"/><circle cx="160" cy="886" r="2" fill="#34D399" fill-opacity=".10"/><circle cx="194" cy="886" r="2" fill="#34D399" fill-opacity=".10"/><circle cx="228" cy="886" r="2" fill="#34D399" fill-opacity=".10"/><circle cx="262" cy="886" r="2" fill="#34D399" fill-opacity=".10"/><circle cx="296" cy="886" r="2" fill="#34D399" fill-opacity=".10"/><circle cx="330" cy="886" r="2" fill="#34D399" fill-opacity=".10"/><circle cx="364" cy="886" r="2" fill="#34D399" fill-opacity=".10"/><circle cx="398" cy="886" r="2" fill="#34D399" fill-opacity=".10"/><circle cx="432" cy="886" r="2" fill="#34D399" fill-opacity=".10"/><circle cx="466" cy="886" r="2" fill="#34D399" fill-opacity=".10"/><circle cx="500" cy="886" r="2" fill="#34D399" fill-opacity=".10"/><circle cx="534" cy="886" r="2" fill="#34D399" fill-opacity=".10"/><circle cx="568" cy="886" r="2" fill="#34D399" fill-opacity=".10"/><circle cx="602" cy="886" r="2" fill="#34D399" fill-opacity=".10"/><circle cx="636" cy="886" r="2" fill="#34D399" fill-opacity=".10"/><circle cx="670" cy="886" r="2" fill="#34D399" fill-opacity=".10"/><circle cx="704" cy="886" r="2" fill="#34D399" fill-opacity=".10"/><circle cx="738" cy="886" r="2" fill="#34D399" fill-opacity=".10"/><circle cx="772" cy="886" r="2" fill="#34D399" fill-opacity=".10"/><circle cx="806" cy="886" r="2" fill="#34D399" fill-opacity=".10"/><circle cx="840" cy="886" r="2" fill="#34D399" fill-opacity=".10"/><circle cx="874" cy="886" r="2" fill="#34D399" fill-opacity=".10"/><circle cx="908" cy="886" r="2" fill="#34D399" fill-opacity=".10"/><circle cx="942" cy="886" r="2" fill="#34D399" fill-opacity=".10"/><circle cx="976" cy="886" r="2" fill="#34D399" fill-opacity=".10"/><circle cx="1010" cy="886" r="2" fill="#34D399" fill-opacity=".10"/><circle cx="1044" cy="886" r="2" fill="#34D399" fill-opacity=".10"/><circle cx="160" cy="920" r="2" fill="#34D399" fill-opacity=".10"/><circle cx="194" cy="920" r="2" fill="#34D399" fill-opacity=".10"/><circle cx="228" cy="920" r="2" fill="#34D399" fill-opacity=".10"/><circle cx="262" cy="920" r="2" fill="#34D399" fill-opacity=".10"/><circle cx="296" cy="920" r="2" fill="#34D399" fill-opacity=".10"/><circle cx="330" cy="920" r="2" fill="#34D399" fill-opacity=".10"/><circle cx="364" cy="920" r="2" fill="#34D399" fill-opacity=".10"/><circle cx="398" cy="920" r="2" fill="#34D399" fill-opacity=".10"/><circle cx="432" cy="920" r="2" fill="#34D399" fill-opacity=".10"/><circle cx="466" cy="920" r="2" fill="#34D399" fill-opacity=".10"/><circle cx="500" cy="920" r="2" fill="#34D399" fill-opacity=".10"/><circle cx="534" cy="920" r="2" fill="#34D399" fill-opacity=".10"/><circle cx="568" cy="920" r="2" fill="#34D399" fill-opacity=".10"/><circle cx="602" cy="920" r="2" fill="#34D399" fill-opacity=".10"/><circle cx="636" cy="920" r="2" fill="#34D399" fill-opacity=".10"/><circle cx="670" cy="920" r="2" fill="#34D399" fill-opacity=".10"/><circle cx="704" cy="920" r="2" fill="#34D399" fill-opacity=".10"/><circle cx="738" cy="920" r="2" fill="#34D399" fill-opacity=".10"/><circle cx="772" cy="920" r="2" fill="#34D399" fill-opacity=".10"/><circle cx="806" cy="920" r="2" fill="#34D399" fill-opacity=".10"/><circle cx="840" cy="920" r="2" fill="#34D399" fill-opacity=".10"/><circle cx="874" cy="920" r="2" fill="#34D399" fill-opacity=".10"/><circle cx="908" cy="920" r="2" fill="#34D399" fill-opacity=".10"/><circle cx="942" cy="920" r="2" fill="#34D399" fill-opacity=".10"/><circle cx="976" cy="920" r="2" fill="#34D399" fill-opacity=".10"/><circle cx="1010" cy="920" r="2" fill="#34D399" fill-opacity=".10"/><circle cx="1044" cy="920" r="2" fill="#34D399" fill-opacity=".10"/><circle cx="160" cy="954" r="2" fill="#34D399" fill-opacity=".10"/><circle cx="194" cy="954" r="2" fill="#34D399" fill-opacity=".10"/><circle cx="228" cy="954" r="2" fill="#34D399" fill-opacity=".10"/><circle cx="262" cy="954" r="2" fill="#34D399" fill-opacity=".10"/><circle cx="296" cy="954" r="2" fill="#34D399" fill-opacity=".10"/><circle cx="330" cy="954" r="2" fill="#34D399" fill-opacity=".10"/><circle cx="364" cy="954" r="2" fill="#34D399" fill-opacity=".10"/><circle cx="398" cy="954" r="2" fill="#34D399" fill-opacity=".10"/><circle cx="432" cy="954" r="2" fill="#34D399" fill-opacity=".10"/><circle cx="466" cy="954" r="2" fill="#34D399" fill-opacity=".10"/><circle cx="500" cy="954" r="2" fill="#34D399" fill-opacity=".10"/><circle cx="534" cy="954" r="2" fill="#34D399" fill-opacity=".10"/><circle cx="568" cy="954" r="2" fill="#34D399" fill-opacity=".10"/><circle cx="602" cy="954" r="2" fill="#34D399" fill-opacity=".10"/><circle cx="636" cy="954" r="2" fill="#34D399" fill-opacity=".10"/><circle cx="670" cy="954" r="2" fill="#34D399" fill-opacity=".10"/><circle cx="704" cy="954" r="2" fill="#34D399" fill-opacity=".10"/><circle cx="738" cy="954" r="2" fill="#34D399" fill-opacity=".10"/><circle cx="772" cy="954" r="2" fill="#34D399" fill-opacity=".10"/><circle cx="806" cy="954" r="2" fill="#34D399" fill-opacity=".10"/><circle cx="840" cy="954" r="2" fill="#34D399" fill-opacity=".10"/><circle cx="874" cy="954" r="2" fill="#34D399" fill-opacity=".10"/><circle cx="908" cy="954" r="2" fill="#34D399" fill-opacity=".10"/><circle cx="942" cy="954" r="2" fill="#34D399" fill-opacity=".10"/><circle cx="976" cy="954" r="2" fill="#34D399" fill-opacity=".10"/><circle cx="1010" cy="954" r="2" fill="#34D399" fill-opacity=".10"/><circle cx="1044" cy="954" r="2" fill="#34D399" fill-opacity=".10"/><circle cx="160" cy="988" r="2" fill="#34D399" fill-opacity=".10"/><circle cx="194" cy="988" r="2" fill="#34D399" fill-opacity=".10"/><circle cx="228" cy="988" r="2" fill="#34D399" fill-opacity=".10"/><circle cx="262" cy="988" r="2" fill="#34D399" fill-opacity=".10"/><circle cx="296" cy="988" r="2" fill="#34D399" fill-opacity=".10"/><circle cx="330" cy="988" r="2" fill="#34D399" fill-opacity=".10"/><circle cx="364" cy="988" r="2" fill="#34D399" fill-opacity=".10"/><circle cx="398" cy="988" r="2" fill="#34D399" fill-opacity=".10"/><circle cx="432" cy="988" r="2" fill="#34D399" fill-opacity=".10"/><circle cx="466" cy="988" r="2" fill="#34D399" fill-opacity=".10"/><circle cx="500" cy="988" r="2" fill="#34D399" fill-opacity=".10"/><circle cx="534" cy="988" r="2" fill="#34D399" fill-opacity=".10"/><circle cx="568" cy="988" r="2" fill="#34D399" fill-opacity=".10"/><circle cx="602" cy="988" r="2" fill="#34D399" fill-opacity=".10"/><circle cx="636" cy="988" r="2" fill="#34D399" fill-opacity=".10"/><circle cx="670" cy="988" r="2" fill="#34D399" fill-opacity=".10"/><circle cx="704" cy="988" r="2" fill="#34D399" fill-opacity=".10"/><circle cx="738" cy="988" r="2" fill="#34D399" fill-opacity=".10"/><circle cx="772" cy="988" r="2" fill="#34D399" fill-opacity=".10"/><circle cx="806" cy="988" r="2" fill="#34D399" fill-opacity=".10"/><circle cx="840" cy="988" r="2" fill="#34D399" fill-opacity=".10"/><circle cx="874" cy="988" r="2" fill="#34D399" fill-opacity=".10"/><circle cx="908" cy="988" r="2" fill="#34D399" fill-opacity=".10"/><circle cx="942" cy="988" r="2" fill="#34D399" fill-opacity=".10"/><circle cx="976" cy="988" r="2" fill="#34D399" fill-opacity=".10"/><circle cx="1010" cy="988" r="2" fill="#34D399" fill-opacity=".10"/><circle cx="1044" cy="988" r="2" fill="#34D399" fill-opacity=".10"/><circle cx="160" cy="1022" r="2" fill="#34D399" fill-opacity=".10"/><circle cx="194" cy="1022" r="2" fill="#34D399" fill-opacity=".10"/><circle cx="228" cy="1022" r="2" fill="#34D399" fill-opacity=".10"/><circle cx="262" cy="1022" r="2" fill="#34D399" fill-opacity=".10"/><circle cx="296" cy="1022" r="2" fill="#34D399" fill-opacity=".10"/><circle cx="330" cy="1022" r="2" fill="#34D399" fill-opacity=".10"/><circle cx="364" cy="1022" r="2" fill="#34D399" fill-opacity=".10"/><circle cx="398" cy="1022" r="2" fill="#34D399" fill-opacity=".10"/><circle cx="432" cy="1022" r="2" fill="#34D399" fill-opacity=".10"/><circle cx="466" cy="1022" r="2" fill="#34D399" fill-opacity=".10"/><circle cx="500" cy="1022" r="2" fill="#34D399" fill-opacity=".10"/><circle cx="534" cy="1022" r="2" fill="#34D399" fill-opacity=".10"/><circle cx="568" cy="1022" r="2" fill="#34D399" fill-opacity=".10"/><circle cx="602" cy="1022" r="2" fill="#34D399" fill-opacity=".10"/><circle cx="636" cy="1022" r="2" fill="#34D399" fill-opacity=".10"/><circle cx="670" cy="1022" r="2" fill="#34D399" fill-opacity=".10"/><circle cx="704" cy="1022" r="2" fill="#34D399" fill-opacity=".10"/><circle cx="738" cy="1022" r="2" fill="#34D399" fill-opacity=".10"/><circle cx="772" cy="1022" r="2" fill="#34D399" fill-opacity=".10"/><circle cx="806" cy="1022" r="2" fill="#34D399" fill-opacity=".10"/><circle cx="840" cy="1022" r="2" fill="#34D399" fill-opacity=".10"/><circle cx="874" cy="1022" r="2" fill="#34D399" fill-opacity=".10"/><circle cx="908" cy="1022" r="2" fill="#34D399" fill-opacity=".10"/><circle cx="942" cy="1022" r="2" fill="#34D399" fill-opacity=".10"/><circle cx="976" cy="1022" r="2" fill="#34D399" fill-opacity=".10"/><circle cx="1010" cy="1022" r="2" fill="#34D399" fill-opacity=".10"/><circle cx="1044" cy="1022" r="2" fill="#34D399" fill-opacity=".10"/><circle cx="160" cy="1056" r="2" fill="#34D399" fill-opacity=".10"/><circle cx="194" cy="1056" r="2" fill="#34D399" fill-opacity=".10"/><circle cx="228" cy="1056" r="2" fill="#34D399" fill-opacity=".10"/><circle cx="262" cy="1056" r="2" fill="#34D399" fill-opacity=".10"/><circle cx="296" cy="1056" r="2" fill="#34D399" fill-opacity=".10"/><circle cx="330" cy="1056" r="2" fill="#34D399" fill-opacity=".10"/><circle cx="364" cy="1056" r="2" fill="#34D399" fill-opacity=".10"/><circle cx="398" cy="1056" r="2" fill="#34D399" fill-opacity=".10"/><circle cx="432" cy="1056" r="2" fill="#34D399" fill-opacity=".10"/><circle cx="466" cy="1056" r="2" fill="#34D399" fill-opacity=".10"/><circle cx="500" cy="1056" r="2" fill="#34D399" fill-opacity=".10"/><circle cx="534" cy="1056" r="2" fill="#34D399" fill-opacity=".10"/><circle cx="568" cy="1056" r="2" fill="#34D399" fill-opacity=".10"/><circle cx="602" cy="1056" r="2" fill="#34D399" fill-opacity=".10"/><circle cx="636" cy="1056" r="2" fill="#34D399" fill-opacity=".10"/><circle cx="670" cy="1056" r="2" fill="#34D399" fill-opacity=".10"/><circle cx="704" cy="1056" r="2" fill="#34D399" fill-opacity=".10"/><circle cx="738" cy="1056" r="2" fill="#34D399" fill-opacity=".10"/><circle cx="772" cy="1056" r="2" fill="#34D399" fill-opacity=".10"/><circle cx="806" cy="1056" r="2" fill="#34D399" fill-opacity=".10"/><circle cx="840" cy="1056" r="2" fill="#34D399" fill-opacity=".10"/><circle cx="874" cy="1056" r="2" fill="#34D399" fill-opacity=".10"/><circle cx="908" cy="1056" r="2" fill="#34D399" fill-opacity=".10"/><circle cx="942" cy="1056" r="2" fill="#34D399" fill-opacity=".10"/><circle cx="976" cy="1056" r="2" fill="#34D399" fill-opacity=".10"/><circle cx="1010" cy="1056" r="2" fill="#34D399" fill-opacity=".10"/><circle cx="1044" cy="1056" r="2" fill="#34D399" fill-opacity=".10"/><circle cx="160" cy="1090" r="2" fill="#34D399" fill-opacity=".10"/><circle cx="194" cy="1090" r="2" fill="#34D399" fill-opacity=".10"/><circle cx="228" cy="1090" r="2" fill="#34D399" fill-opacity=".10"/><circle cx="262" cy="1090" r="2" fill="#34D399" fill-opacity=".10"/><circle cx="296" cy="1090" r="2" fill="#34D399" fill-opacity=".10"/><circle cx="330" cy="1090" r="2" fill="#34D399" fill-opacity=".10"/><circle cx="364" cy="1090" r="2" fill="#34D399" fill-opacity=".10"/><circle cx="398" cy="1090" r="2" fill="#34D399" fill-opacity=".10"/><circle cx="432" cy="1090" r="2" fill="#34D399" fill-opacity=".10"/><circle cx="466" cy="1090" r="2" fill="#34D399" fill-opacity=".10"/><circle cx="500" cy="1090" r="2" fill="#34D399" fill-opacity=".10"/><circle cx="534" cy="1090" r="2" fill="#34D399" fill-opacity=".10"/><circle cx="568" cy="1090" r="2" fill="#34D399" fill-opacity=".10"/><circle cx="602" cy="1090" r="2" fill="#34D399" fill-opacity=".10"/><circle cx="636" cy="1090" r="2" fill="#34D399" fill-opacity=".10"/><circle cx="670" cy="1090" r="2" fill="#34D399" fill-opacity=".10"/><circle cx="704" cy="1090" r="2" fill="#34D399" fill-opacity=".10"/><circle cx="738" cy="1090" r="2" fill="#34D399" fill-opacity=".10"/><circle cx="772" cy="1090" r="2" fill="#34D399" fill-opacity=".10"/><circle cx="806" cy="1090" r="2" fill="#34D399" fill-opacity=".10"/><circle cx="840" cy="1090" r="2" fill="#34D399" fill-opacity=".10"/><circle cx="874" cy="1090" r="2" fill="#34D399" fill-opacity=".10"/><circle cx="908" cy="1090" r="2" fill="#34D399" fill-opacity=".10"/><circle cx="942" cy="1090" r="2" fill="#34D399" fill-opacity=".10"/><circle cx="976" cy="1090" r="2" fill="#34D399" fill-opacity=".10"/><circle cx="1010" cy="1090" r="2" fill="#34D399" fill-opacity=".10"/><circle cx="1044" cy="1090" r="2" fill="#34D399" fill-opacity=".10"/></g>
<g clip-path="url(#soilShape)"><g opacity=".55" filter="url(#glow)"><path d="M430 808 L430 947" fill="none" stroke="#34D399" stroke-width="12" stroke-linecap="round" stroke-linejoin="round"/><path d="M600 808 L600 1002" fill="none" stroke="#34D399" stroke-width="12" stroke-linecap="round" stroke-linejoin="round"/><path d="M770 808 L770 1057" fill="none" stroke="#34D399" stroke-width="12" stroke-linecap="round" stroke-linejoin="round"/><path d="M430 870 L375 925 L270 925 L270 1000" fill="none" stroke="#34D399" stroke-width="6" stroke-linecap="round" stroke-linejoin="round"/><path d="M430 900 L480 950 L515 950 L515 1060" fill="none" stroke="#34D399" stroke-width="6" stroke-linecap="round" stroke-linejoin="round"/><path d="M600 890 L660 950 L690 950 L690 1090" fill="none" stroke="#34D399" stroke-width="6" stroke-linecap="round" stroke-linejoin="round"/><path d="M600 940 L545 995 L545 1100" fill="none" stroke="#34D399" stroke-width="6" stroke-linecap="round" stroke-linejoin="round"/><path d="M770 865 L830 925 L935 925 L935 985" fill="none" stroke="#34D399" stroke-width="6" stroke-linecap="round" stroke-linejoin="round"/><path d="M770 935 L720 985 L720 1035" fill="none" stroke="#34D399" stroke-width="6" stroke-linecap="round" stroke-linejoin="round"/><path d="M935 955 L995 955" fill="none" stroke="#34D399" stroke-width="6" stroke-linecap="round" stroke-linejoin="round"/><path d="M270 965 L205 965" fill="none" stroke="#34D399" stroke-width="6" stroke-linecap="round" stroke-linejoin="round"/><path d="M375 925 L375 1060 L330 1105" fill="none" stroke="#34D399" stroke-width="6" stroke-linecap="round" stroke-linejoin="round"/><path d="M830 925 L830 1070 L875 1110" fill="none" stroke="#34D399" stroke-width="6" stroke-linecap="round" stroke-linejoin="round"/></g><path d="M430 808 L430 947" fill="none" stroke="#34D399" stroke-width="12" stroke-linecap="round" stroke-linejoin="round"/><path d="M600 808 L600 1002" fill="none" stroke="#34D399" stroke-width="12" stroke-linecap="round" stroke-linejoin="round"/><path d="M770 808 L770 1057" fill="none" stroke="#34D399" stroke-width="12" stroke-linecap="round" stroke-linejoin="round"/><path d="M430 870 L375 925 L270 925 L270 1000" fill="none" stroke="#34D399" stroke-width="6" stroke-linecap="round" stroke-linejoin="round"/><path d="M430 900 L480 950 L515 950 L515 1060" fill="none" stroke="#34D399" stroke-width="6" stroke-linecap="round" stroke-linejoin="round"/><path d="M600 890 L660 950 L690 950 L690 1090" fill="none" stroke="#34D399" stroke-width="6" stroke-linecap="round" stroke-linejoin="round"/><path d="M600 940 L545 995 L545 1100" fill="none" stroke="#34D399" stroke-width="6" stroke-linecap="round" stroke-linejoin="round"/><path d="M770 865 L830 925 L935 925 L935 985" fill="none" stroke="#34D399" stroke-width="6" stroke-linecap="round" stroke-linejoin="round"/><path d="M770 935 L720 985 L720 1035" fill="none" stroke="#34D399" stroke-width="6" stroke-linecap="round" stroke-linejoin="round"/><path d="M935 955 L995 955" fill="none" stroke="#34D399" stroke-width="6" stroke-linecap="round" stroke-linejoin="round"/><path d="M270 965 L205 965" fill="none" stroke="#34D399" stroke-width="6" stroke-linecap="round" stroke-linejoin="round"/><path d="M375 925 L375 1060 L330 1105" fill="none" stroke="#34D399" stroke-width="6" stroke-linecap="round" stroke-linejoin="round"/><path d="M830 925 L830 1070 L875 1110" fill="none" stroke="#34D399" stroke-width="6" stroke-linecap="round" stroke-linejoin="round"/></g>
<circle cx="430" cy="969" r="32" fill="#34D399" fill-opacity=".18"/><circle cx="430" cy="969" r="22" fill="#F4F1EA" stroke="#34D399" stroke-width="6"/>
<circle cx="600" cy="1024" r="32" fill="#34D399" fill-opacity=".18"/><circle cx="600" cy="1024" r="22" fill="#F4F1EA" stroke="#34D399" stroke-width="6"/>
<circle cx="770" cy="1079" r="32" fill="#34D399" fill-opacity=".18"/><circle cx="770" cy="1079" r="22" fill="#F4F1EA" stroke="#34D399" stroke-width="6"/>
<circle cx="270" cy="1000" r="10" fill="#0E3B2E" stroke="#34D399" stroke-width="4"/>
<circle cx="515" cy="1060" r="10" fill="#0E3B2E" stroke="#34D399" stroke-width="4"/>
<circle cx="690" cy="1090" r="10" fill="#0E3B2E" stroke="#34D399" stroke-width="4"/>
<circle cx="545" cy="1100" r="10" fill="#0E3B2E" stroke="#34D399" stroke-width="4"/>
<circle cx="935" cy="985" r="10" fill="#0E3B2E" stroke="#34D399" stroke-width="4"/>
<circle cx="720" cy="1035" r="10" fill="#0E3B2E" stroke="#34D399" stroke-width="4"/>
<circle cx="995" cy="955" r="10" fill="#0E3B2E" stroke="#34D399" stroke-width="4"/>
<circle cx="205" cy="965" r="10" fill="#0E3B2E" stroke="#34D399" stroke-width="4"/>
<circle cx="330" cy="1105" r="10" fill="#0E3B2E" stroke="#34D399" stroke-width="4"/>
<circle cx="875" cy="1110" r="10" fill="#0E3B2E" stroke="#34D399" stroke-width="4"/>
<circle cx="430" cy="845" r="5" fill="#F4F1EA"/>
<circle cx="600" cy="1000" r="5" fill="#F4F1EA"/>
<circle cx="770" cy="1015" r="5" fill="#F4F1EA"/>
<circle cx="320" cy="925" r="5" fill="#F4F1EA"/>
<circle cx="880" cy="925" r="5" fill="#F4F1EA"/>
<circle cx="690" cy="1030" r="5" fill="#F4F1EA"/>
<circle cx="375" cy="1010" r="5" fill="#F4F1EA"/>
<path d="M170 815 H1030" stroke="#34D399" stroke-opacity=".55" stroke-width="5" stroke-linecap="round" clip-path="url(#soilShape)"/>
<path d="M340 360 L340 625 L374 625" fill="none" stroke="#197B57" stroke-opacity="0.38" stroke-width="3" stroke-linecap="round" stroke-linejoin="round" stroke-dasharray="2 9"/>
<circle cx="340" cy="360" r="6" fill="#fff" stroke="#197B57" stroke-width="3"/>
<path d="M315 540 L340 540" fill="none" stroke="#197B57" stroke-opacity="0.38" stroke-width="3" stroke-linecap="round" stroke-linejoin="round" stroke-dasharray="2 9"/>
<circle cx="315" cy="540" r="6" fill="#fff" stroke="#197B57" stroke-width="3"/>
<path d="M320 730 L374 730" fill="none" stroke="#197B57" stroke-opacity="0.38" stroke-width="3" stroke-linecap="round" stroke-linejoin="round" stroke-dasharray="2 9"/>
<circle cx="320" cy="730" r="6" fill="#fff" stroke="#197B57" stroke-width="3"/>
<path d="M600 317 L600 452" fill="none" stroke="#197B57" stroke-opacity="0.38" stroke-width="3" stroke-linecap="round" stroke-linejoin="round" stroke-dasharray="2 9"/>
<circle cx="600" cy="317" r="6" fill="#fff" stroke="#197B57" stroke-width="3"/>
<path d="M875 495 L826 495" fill="none" stroke="#197B57" stroke-opacity="0.38" stroke-width="3" stroke-linecap="round" stroke-linejoin="round" stroke-dasharray="2 9"/>
<circle cx="875" cy="495" r="6" fill="#fff" stroke="#197B57" stroke-width="3"/>
<path d="M885 705 L826 705" fill="none" stroke="#197B57" stroke-opacity="0.38" stroke-width="3" stroke-linecap="round" stroke-linejoin="round" stroke-dasharray="2 9"/>
<circle cx="885" cy="705" r="6" fill="#fff" stroke="#197B57" stroke-width="3"/>
<g filter="url(#barShadow)"><path d="M374.0 812 V638.0 A56.0 56.0 0 0 1 486.0 638.0 V812 Z" fill="url(#bar)"/></g>
<path d="M374.0 812 V638.0 A56.0 56.0 0 0 1 486.0 638.0 V812 Z" fill="url(#barSheen)"/>
<g filter="url(#barShadow)"><path d="M544.0 812 V508.0 A56.0 56.0 0 0 1 656.0 508.0 V812 Z" fill="url(#bar)"/></g>
<path d="M544.0 812 V508.0 A56.0 56.0 0 0 1 656.0 508.0 V812 Z" fill="url(#barSheen)"/>
<g filter="url(#barShadow)"><path d="M714.0 812 V368.0 A56.0 56.0 0 0 1 826.0 368.0 V812 Z" fill="url(#bar)"/></g>
<path d="M714.0 812 V368.0 A56.0 56.0 0 0 1 826.0 368.0 V812 Z" fill="url(#barSheen)"/>
<circle cx="374" cy="625" r="7" fill="#197B57" stroke="#fff" stroke-width="3"/>
<circle cx="340" cy="540" r="7" fill="#197B57" stroke="#fff" stroke-width="3"/>
<circle cx="374" cy="730" r="7" fill="#197B57" stroke="#fff" stroke-width="3"/>
<circle cx="600" cy="452" r="7" fill="#197B57" stroke="#fff" stroke-width="3"/>
<circle cx="826" cy="495" r="7" fill="#197B57" stroke="#fff" stroke-width="3"/>
<circle cx="826" cy="705" r="7" fill="#197B57" stroke="#fff" stroke-width="3"/>
<g filter="url(#cardShadow)"><rect x="85" y="170" width="290" height="190" rx="22" fill="#fff" stroke="#0E3B2E" stroke-opacity=".07" stroke-width="1.5"/></g>
<g transform="translate(85 170)"><rect x="24" y="26" width="90" height="10" rx="5.0" fill="#0E3B2E" fill-opacity="0.12"/><rect x="24" y="46" width="150" height="18" rx="9.0" fill="#0E3B2E" fill-opacity="0.85"/><rect x="196" y="24" width="70" height="26" rx="13" fill="#197B57" fill-opacity=".12"/><path d="M210 41 l10 -10 l10 10" fill="none" stroke="#197B57" stroke-width="4" stroke-linecap="round" stroke-linejoin="round"/><rect x="236" y="32" width="22" height="10" rx="5.0" fill="#197B57" fill-opacity="0.45"/><polygon points="24,160 24,118 64,104 104,110 144,86 184,92 224,64 262,48 262,160" fill="url(#area)"/><polyline points="24,118 64,104 104,110 144,86 184,92 224,64 262,48" fill="none" stroke="#197B57" stroke-width="5" stroke-linecap="round" stroke-linejoin="round"/><circle cx="262" cy="48" r="8" fill="#fff" stroke="#197B57" stroke-width="4"/></g>
<g filter="url(#cardShadow)"><rect x="440" y="225" width="230" height="92" rx="46" fill="#fff" stroke="#0E3B2E" stroke-opacity=".07" stroke-width="1.5"/></g>
<g transform="translate(440 225)"><circle cx="46" cy="46" r="26" fill="#197B57"/><path d="M34 47 l9 9 l17 -18" fill="none" stroke="#fff" stroke-width="6" stroke-linecap="round" stroke-linejoin="round"/><rect x="88" y="30" width="110" height="12" rx="6.0" fill="#0E3B2E" fill-opacity="0.7"/><rect x="88" y="52" width="80" height="10" rx="5.0" fill="#0E3B2E" fill-opacity="0.12"/></g>
<g filter="url(#cardShadow)"><rect x="100" y="440" width="215" height="160" rx="22" fill="#fff" stroke="#0E3B2E" stroke-opacity=".07" stroke-width="1.5"/></g>
<g transform="translate(100 440)"><circle cx="62" cy="62" r="30" fill="#197B57" fill-opacity=".16"/><circle cx="62" cy="54" r="12" fill="#197B57"/><path d="M40 82 q22 -26 44 0" fill="#197B57"/><circle cx="122" cy="62" r="30" fill="#0E3B2E" fill-opacity=".10"/><circle cx="122" cy="54" r="12" fill="#0E3B2E"/><path d="M100 82 q22 -26 44 0" fill="#0E3B2E"/><rect x="32" y="112" width="150" height="10" rx="5.0" fill="#0E3B2E" fill-opacity="0.55"/><rect x="32" y="132" width="100" height="10" rx="5.0" fill="#0E3B2E" fill-opacity="0.12"/></g>
<g filter="url(#cardShadow)"><rect x="125" y="640" width="195" height="120" rx="22" fill="#fff" stroke="#0E3B2E" stroke-opacity=".07" stroke-width="1.5"/></g>
<g transform="translate(125 640)"><g transform="translate(30 26)" fill="none" stroke="#197B57" stroke-width="5" stroke-linejoin="round"><path d="M34 0 L68 16 L68 54 L34 70 L0 54 L0 16 Z" fill="#197B57" fill-opacity=".10"/><path d="M0 16 L34 32 L68 16 M34 32 V70"/></g><rect x="116" y="40" width="56" height="12" rx="6.0" fill="#0E3B2E" fill-opacity="0.65"/><rect x="116" y="62" width="40" height="10" rx="5.0" fill="#0E3B2E" fill-opacity="0.12"/></g>
<g filter="url(#cardShadow)"><rect x="875" y="400" width="230" height="185" rx="22" fill="#fff" stroke="#0E3B2E" stroke-opacity=".07" stroke-width="1.5"/></g>
<g transform="translate(875 400)"><rect x="24" y="22" width="80" height="10" rx="5.0" fill="#0E3B2E" fill-opacity="0.12"/><circle cx="74" cy="92" r="46" fill="none" stroke="#0E3B2E" stroke-opacity=".08" stroke-width="20"/><path d="M74.0 46.0 A46 46 0 1 1 54.6 133.7" fill="none" stroke="#197B57" stroke-width="20"/><path d="M48.9 130.6 A46 46 0 0 1 34.2 69.0" fill="none" stroke="#0E3B2E" stroke-width="20"/><path d="M37.8 63.7 A46 46 0 0 1 67.6 46.4" fill="none" stroke="#197B57" stroke-opacity=".35" stroke-width="20"/><circle cx="150" cy="65" r="6" fill="#197B57" fill-opacity="1"/><rect x="164" y="60" width="44" height="10" rx="5.0" fill="#0E3B2E" fill-opacity="0.12"/><circle cx="150" cy="93" r="6" fill="#0E3B2E" fill-opacity="1"/><rect x="164" y="88" width="34" height="10" rx="5.0" fill="#0E3B2E" fill-opacity="0.12"/><circle cx="150" cy="121" r="6" fill="#197B57" fill-opacity="0.35"/><rect x="164" y="116" width="40" height="10" rx="5.0" fill="#0E3B2E" fill-opacity="0.12"/></g>
<g filter="url(#cardShadow)"><rect x="885" y="640" width="205" height="130" rx="22" fill="#fff" stroke="#0E3B2E" stroke-opacity=".07" stroke-width="1.5"/></g>
<g transform="translate(885 640)"><path d="M28 22 h48 l18 18 v62 a6 6 0 0 1 -6 6 h-60 a6 6 0 0 1 -6 -6 v-74 a6 6 0 0 1 6 -6 z" fill="#0E3B2E" fill-opacity=".06" stroke="#0E3B2E" stroke-opacity=".55" stroke-width="4" stroke-linejoin="round"/><path d="M76 22 v18 h18" fill="none" stroke="#0E3B2E" stroke-opacity=".55" stroke-width="4" stroke-linejoin="round"/><rect x="36" y="56" width="40" height="8" rx="4.0" fill="#0E3B2E" fill-opacity="0.25"/><rect x="36" y="72" width="48" height="8" rx="4.0" fill="#0E3B2E" fill-opacity="0.25"/><rect x="36" y="88" width="30" height="8" rx="4.0" fill="#0E3B2E" fill-opacity="0.25"/><circle cx="92" cy="98" r="17" fill="#197B57"/><path d="M84 98 l6 6 l11 -12" fill="none" stroke="#fff" stroke-width="4.5" stroke-linecap="round" stroke-linejoin="round"/><rect x="124" y="42" width="56" height="12" rx="6.0" fill="#0E3B2E" fill-opacity="0.65"/><rect x="124" y="64" width="40" height="10" rx="5.0" fill="#0E3B2E" fill-opacity="0.12"/></g>
<circle cx="240" cy="120" r="6" fill="#197B57" fill-opacity="0.35"/>
<circle cx="760" cy="160" r="5" fill="#197B57" fill-opacity="0.3"/>
<circle cx="1080" cy="330" r="7" fill="#197B57" fill-opacity="0.25"/>
<circle cx="1110" cy="860" r="6" fill="#197B57" fill-opacity="0.25"/>
<circle cx="110" cy="900" r="5" fill="#197B57" fill-opacity="0.3"/>
<circle cx="690" cy="70" r="4" fill="#197B57" fill-opacity="0.3"/>
<circle cx="980" cy="1080" r="5" fill="#197B57" fill-opacity="0.25"/>
<circle cx="150" cy="1120" r="4" fill="#197B57" fill-opacity="0.25"/>
</svg>